<?xml version="1.0" encoding="UTF-8"?>
<svg xmlns="http://www.w3.org/2000/svg" width="58" height="58" viewBox="0 0 58 58" fill="none">
  <path d="M1 42.9957V44.1875H3.28509V49.8607H4.63163V44.1875H6.90704V42.9957H1Z" fill="white"/>
  <path d="M31.5331 48.6802V49.8623H26.8662V42.9973H28.2128V48.6802H31.5331Z" fill="white"/>
  <path d="M51.8916 49.1188L52.5657 48.0448C53.1801 48.5431 53.8638 48.7769 54.5863 48.7769C55.2007 48.7769 55.6603 48.5141 55.6603 47.9577C55.6603 47.4013 55.2701 47.1659 54.2444 46.8821C53.0817 46.5612 52.1738 46.1112 52.1738 44.9098C52.1738 43.7084 53.1704 42.9086 54.6444 42.9086C55.649 42.9086 56.4021 43.1908 56.9407 43.6117L56.3247 44.6276C55.857 44.2857 55.3297 44.0809 54.6363 44.0809C54.0106 44.0809 53.5429 44.3148 53.5429 44.8228C53.5429 45.3307 53.9912 45.4775 54.9395 45.7597C56.1022 46.1016 57.0004 46.5499 57.0004 47.869C57.0004 49.1881 56.0328 49.9477 54.5686 49.9477C53.4268 49.9477 52.577 49.6461 51.8932 49.1188" fill="white"/>
  <path d="M30.9303 29.5723C30.1804 30.0818 29.6821 30.6221 29.3402 31.1075V28.0177C29.4902 27.779 29.8256 27.3323 30.3416 27.0598C30.7029 26.8695 31.3915 26.597 32.122 26.3099C33.046 25.9455 34.0942 25.531 34.786 25.1617C34.8715 25.1166 34.9376 25.0698 35.015 25.0247C34.012 27.2275 32.3268 28.624 30.9303 29.5723ZM27.0616 29.5642C24.92 28.1048 22.0769 25.5971 22.1156 20.698C22.164 14.7135 27.0212 11.0367 28.6387 9.98048V27.8258C28.6258 27.8484 28.6177 27.8661 28.6145 27.8693L28.6387 27.8822V31.0881C28.2984 30.6059 27.8034 30.0706 27.0616 29.5642ZM32.2413 12.4043C31.7124 12.6752 31.364 12.8122 31.0367 12.9348C30.7303 13.0509 30.44 13.1606 30.0449 13.3702C29.7659 13.517 29.5353 13.7008 29.3418 13.8895V9.98693C29.9707 10.3965 31.0899 11.2061 32.2429 12.4043M31.1689 16.123C30.7045 16.2907 30.3029 16.439 30.053 16.5713C29.7692 16.7229 29.5369 16.9131 29.3434 17.1067V14.9909C29.4773 14.77 29.8175 14.283 30.3739 13.9895C30.7335 13.8008 30.9883 13.704 31.285 13.5928C31.6495 13.4541 32.0655 13.296 32.7316 12.9429C33.1815 13.4589 33.6201 14.0314 34.0233 14.6635C33.5169 15.2699 32.0752 15.794 31.1689 16.123ZM34.5312 17.9049C33.8797 18.2565 32.8606 18.6612 31.9591 19.0176C31.1818 19.3256 30.5142 19.5933 30.1223 19.8014C29.8046 19.9691 29.5482 20.1868 29.3418 20.3996V18.242C29.4434 18.0581 29.7853 17.5098 30.3852 17.1889C30.5884 17.0809 30.9673 16.9422 31.4076 16.7825C32.4639 16.3987 33.712 15.9407 34.3958 15.2812C34.7167 15.852 35.007 16.4584 35.2424 17.1115C35.2827 17.2389 35.1892 17.5501 34.5329 17.9033M35.831 19.8755C35.7794 19.9836 35.4279 20.6351 34.4506 21.1656C33.8056 21.5172 32.7944 21.922 31.9011 22.28C31.1351 22.5864 30.4723 22.8541 30.0836 23.0605C29.7869 23.2201 29.5434 23.4233 29.345 23.6249V21.5285L29.366 21.5398C29.3692 21.5317 29.7353 20.8012 30.4545 20.419C30.8125 20.2287 31.4979 19.9562 32.222 19.6691C33.1412 19.3047 34.1813 18.8918 34.8667 18.5225C35.1392 18.3742 35.3585 18.2145 35.5311 18.0468C35.681 18.6258 35.7794 19.2386 35.8326 19.8739M35.5504 23.4765C35.5504 23.4765 35.4585 24.0071 34.4603 24.5409C33.8039 24.8924 32.7767 25.2972 31.8688 25.6552C31.0883 25.9616 30.4126 26.2293 30.0191 26.4357C29.7546 26.576 29.5321 26.7502 29.3434 26.9259V24.7811C29.3789 24.7102 29.7288 24.0458 30.4142 23.6781C30.7674 23.4894 31.4447 23.2169 32.1623 22.9299C33.0718 22.5638 34.1039 22.151 34.7844 21.78C35.2666 21.5188 35.6214 21.2285 35.8794 20.9673C35.8665 21.8881 35.752 22.7218 35.5585 23.4781H35.5488L35.5504 23.4765ZM35.9391 16.9873C35.9229 16.9019 35.9004 16.847 35.881 16.8067C34.0313 11.7608 29.216 9.08386 29.1564 9.04999L29.1467 9.06612C29.0967 9.0387 29.0499 9 28.9887 9C28.9274 9 28.8887 9.03709 28.8419 9.06128L28.8274 9.03548C28.7548 9.07418 21.4738 13.1332 21.4125 20.6899C21.3706 25.9261 24.3894 28.5902 26.6632 30.1415C28.4194 31.3397 28.6145 32.5508 28.6355 32.7282V32.7346C28.6355 32.7346 28.6355 32.7378 28.6355 32.7394C28.6403 32.9313 28.7919 33.0862 28.9854 33.0862C29.1644 33.0862 29.2983 32.9475 29.3192 32.7733H29.3338C29.3338 32.7604 29.5144 31.38 31.3205 30.1512C33.5991 28.6015 36.6228 25.9358 36.5809 20.7044C36.5696 19.3514 36.3213 18.1162 35.9294 16.9889" fill="white"/>
</svg>