<svg id="Livello_2" xmlns="http://www.w3.org/2000/svg" viewBox="0 0 743.8 414.91"><g id="Livello_1-2">
  <path fill="white" d="M0 210.81L0 218.2L14.17 218.2L14.17 253.38L22.52 253.38L22.52 218.2L36.63 218.2L36.63 210.81L0 210.81z" />
  <path fill="white" d="M102.08 210.82L102.08 253.39L93.72 253.39L93.72 235.76L71.92 235.76L71.92 253.39L63.57 253.39L63.57 210.82L71.92 210.82L71.92 228.38L93.72 228.38L93.72 210.82L102.08 210.82z" />
  <path fill="white" d="M162.85 246.06L162.85 253.39L133.49 253.39L133.49 210.82L162.68 210.82L162.68 218.2L141.85 218.2L141.85 228.19L160.19 228.19L160.19 235.58L141.85 235.58L141.85 246.06L162.85 246.06z" />
  <path fill="white" d="M256.45 246.06L256.45 253.39L227.51 253.39L227.51 210.82L235.86 210.82L235.86 246.06L256.45 246.06z" />
  <path fill="white" d="m315.36,232.19c0-8.12-5.88-14.17-13.75-14.17s-13.99,6.11-13.99,14.17,5.94,14.05,13.99,14.05,13.75-6,13.75-14.05m-36.27,0c0-12.36,9.5-21.92,22.52-21.92s22.28,9.32,22.28,21.92-9.38,21.74-22.28,21.74-22.52-9.45-22.52-21.74" />
  <path fill="white" d="M391.16 210.82L391.16 253.87L386.43 253.87L361.06 225.41L361.06 253.39L352.89 253.39L352.89 210.39L357.61 210.39L382.92 238.79L382.92 210.82L391.16 210.82z" />
  <path fill="white" d="m458.96,232.19v16.77c-2.3,1.76-7.33,4.97-16.23,4.97-13.26,0-22.76-9.51-22.76-21.8s9.5-21.85,22.94-21.85c8.54,0,13.02,3.02,14.6,4.06l-3.69,6.66c-1.09-.73-4.66-2.91-10.54-2.91-8.42,0-14.65,5.57-14.65,14.05s6.54,14.29,14.59,14.29c3.21,0,5.87-.66,7.87-1.63v-12.6h7.88Z" />
  <path fill="white" d="M517.68 246.06L517.68 253.39L488.31 253.39L488.31 210.82L517.51 210.82L517.51 218.2L496.68 218.2L496.68 228.19L515.02 228.19L515.02 235.58L496.68 235.58L496.68 246.06L517.68 246.06z" />
  <path fill="white" d="M583.06 210.82L565.39 253.39L559.99 253.39L542.25 210.82L551.64 210.82L560.24 233.35L562.96 241.94L565.63 233.35L573.98 210.82L583.06 210.82z" />
  <path fill="white" d="M609.69 210.82h8.36v42.57H609.69Z" />
  <path fill="white" d="M681.62 218.2L667.51 218.2L667.51 253.39L659.16 253.39L659.16 218.2L644.99 218.2L644.99 210.81L681.62 210.81L681.62 218.2z" />
  <path fill="white" d="M728 236.79L728 253.38L719.64 253.38L719.64 236.79L704.02 210.82L714.01 210.82L724.19 228.56L734.36 210.82L743.8 210.82L728 236.79z" />
  <path fill="white" d="m242.64,326.27l4.18-6.66c3.81,3.09,8.05,4.54,12.53,4.54,3.81,0,6.66-1.63,6.66-5.08s-2.42-4.91-8.78-6.67c-7.21-1.99-12.84-4.78-12.84-12.23s6.18-12.41,15.32-12.41c6.23,0,10.9,1.75,14.24,4.36l-3.82,6.3c-2.9-2.12-6.17-3.39-10.47-3.39-3.88,0-6.78,1.45-6.78,4.6s2.78,4.06,8.66,5.81c7.21,2.12,12.78,4.9,12.78,13.08s-6,12.89-15.08,12.89c-7.08,0-12.35-1.87-16.59-5.14" />
  <path fill="white" d="m302.7,312.59v-24.28h8.35v24.95c0,5.76,3.39,10.6,10.41,10.6s10.36-4.85,10.36-10.6v-24.95h8.29v24.28c0,12.29-7.44,18.83-18.7,18.83s-18.71-6.54-18.71-18.83" />
  <path fill="white" d="M371.05 288.31h8.35v42.57H371.05Z" />
  <path fill="white" d="M443.04 295.7L428.93 295.7L428.93 330.88L420.57 330.88L420.57 295.7L406.41 295.7L406.41 288.31L443.04 288.31L443.04 295.7z" />
  <path fill="white" d="M499.34 323.55L499.34 330.88L469.97 330.88L469.97 288.31L499.16 288.31L499.16 295.7L478.33 295.7L478.33 305.69L496.68 305.69L496.68 313.08L478.33 313.08L478.33 323.55L499.34 323.55z" />
  <path fill="white" d="m246.29,393.34c.03-.25.22-.46.55-.46h.49c.25,0,.43.13.53.31l6.73,14.44h.09l6.73-14.44c.09-.18.25-.31.52-.31h.49c.34,0,.52.22.55.46l3.61,20.55c.09.43-.16.7-.55.7h-2.78c-.28,0-.52-.24-.58-.45l-1.8-11.59h-.1l-5.35,12.02c-.06.18-.24.33-.52.33h-.55c-.27,0-.43-.15-.52-.33l-5.41-12.02h-.1l-1.77,11.59c-.03.22-.28.45-.55.45h-2.75c-.4,0-.65-.27-.58-.7l3.64-20.55Z" />
  <path fill="white" d="M297.19 393.19h2.85s0.58 0 0.58 0.58v20.25s0 0.58 -0.58 0.58h-2.85s-0.58 0 -0.58 -0.58v-20.25s0 -0.58 0.58 -0.58" />
  <path fill="white" d="m336.05,393.77c0-.3.25-.58.58-.58h2.82c.3,0,.58.28.58.58v17.16h7.8c.34,0,.58.27.58.57v2.51c0,.3-.25.58-.58.58h-11.19c-.34,0-.58-.28-.58-.58v-20.25Z" />
  <path fill="white" d="m390.99,407.28l-3.06-6.72h-.09l-2.99,6.72h6.14Zm-13.21,6.52l9.51-20.58c.1-.18.25-.33.52-.33h.31c.3,0,.42.15.52.33l9.42,20.58c.18.39-.07.79-.53.79h-2.66c-.46,0-.67-.18-.89-.61l-1.5-3.3h-9.15l-1.5,3.3c-.12.3-.39.61-.88.61h-2.66c-.46,0-.7-.4-.52-.79" />
  <path fill="white" d="m430.42,393.43c0-.31.27-.56.58-.56h.77l12.73,13.52h.03v-12.63c0-.3.24-.58.57-.58h2.82c.3,0,.58.28.58.58v20.58c0,.3-.28.55-.58.55h-.73l-12.79-14.04h-.03v13.16c0,.3-.24.57-.58.57h-2.78c-.31,0-.58-.27-.58-.57v-20.58Z" />
  <path fill="white" d="m491.99,410.93c3.85,0,7.04-3.15,7.04-7.01s-3.18-7.06-7.04-7.06-7,3.21-7,7.06,3.14,7.01,7,7.01m0-18.05c6.12,0,11.01,4.92,11.01,11.04s-4.89,10.98-11.01,10.98-10.98-4.86-10.98-10.98,4.86-11.04,10.98-11.04" />
  <path fill="white" d="m384.41,127.57c-4.65,3.16-7.74,6.51-9.86,9.52v-19.16c.93-1.48,3.01-4.25,6.21-5.94,2.24-1.18,6.51-2.87,11.04-4.65,5.73-2.26,12.23-4.83,16.52-7.12.53-.28.94-.57,1.42-.85-6.22,13.66-16.67,22.32-25.33,28.2m-23.99-.05c-13.28-9.05-30.91-24.6-30.67-54.98.3-37.11,30.42-59.91,40.45-66.46v110.66c-.08.14-.13.25-.15.27l.15.08v19.88c-2.11-2.99-5.18-6.31-9.78-9.45m32.12-106.41c-3.28,1.68-5.44,2.53-7.47,3.29-1.9.72-3.7,1.4-6.15,2.7-1.73.91-3.16,2.05-4.36,3.22V6.12c3.9,2.54,10.84,7.56,17.99,14.99m-6.66,23.06c-2.88,1.04-5.37,1.96-6.92,2.78-1.76.94-3.2,2.12-4.4,3.32v-13.12c.83-1.37,2.94-4.39,6.39-6.21,2.23-1.17,3.81-1.77,5.65-2.46,2.26-.86,4.84-1.84,8.97-4.03,2.79,3.2,5.51,6.75,8.01,10.67-3.14,3.76-12.08,7.01-17.7,9.05m20.85,11.05c-4.04,2.18-10.36,4.69-15.95,6.9-4.82,1.91-8.96,3.57-11.39,4.86-1.97,1.04-3.56,2.39-4.84,3.71v-13.38c.63-1.14,2.75-4.54,6.47-6.53,1.26-.67,3.61-1.53,6.34-2.52,6.55-2.38,14.29-5.22,18.53-9.31,1.99,3.54,3.79,7.3,5.25,11.35.25.79-.33,2.72-4.4,4.91m8.05,12.23c-.32.67-2.5,4.71-8.56,8-4,2.18-10.27,4.69-15.81,6.91-4.75,1.9-8.86,3.56-11.27,4.84-1.84.99-3.35,2.25-4.58,3.5v-13l.13.07c.02-.05,2.29-4.58,6.75-6.95,2.22-1.18,6.47-2.87,10.96-4.65,5.7-2.26,12.15-4.82,16.4-7.11,1.69-.92,3.05-1.91,4.12-2.95.93,3.59,1.54,7.39,1.87,11.33m-1.75,22.34s-.57,3.29-6.76,6.6c-4.07,2.18-10.44,4.69-16.07,6.91-4.84,1.9-9.03,3.56-11.47,4.84-1.64.87-3.02,1.95-4.19,3.04v-13.3c.22-.44,2.39-4.56,6.64-6.84,2.19-1.17,6.39-2.86,10.84-4.64,5.64-2.27,12.04-4.83,16.26-7.13,2.99-1.62,5.19-3.42,6.79-5.04-.08,5.71-.79,10.88-1.99,15.57h-.06Zm2.41-40.24c-.1-.53-.24-.87-.36-1.12C403.64,17.12,373.78.52,373.41.31l-.06.1c-.31-.17-.6-.41-.98-.41s-.62.23-.91.38l-.09-.16c-.45.24-45.6,25.41-45.98,72.27-.26,32.47,18.46,48.99,32.56,58.61,10.89,7.43,12.1,14.94,12.23,16.04v.04s0,.02,0,.03h0c.03,1.19.97,2.15,2.17,2.15,1.11,0,1.94-.86,2.07-1.94h.09c0-.08,1.12-8.64,12.32-16.26,14.13-9.61,32.88-26.14,32.62-58.58-.07-8.39-1.61-16.05-4.04-23.04" /></g>
</svg>