<svg id="Livello_2" xmlns="http://www.w3.org/2000/svg" viewBox="0 0 743.8 414.91">
<g id="Livello_1-2">
  <path fill="white" d="M0 210.81L0 218.2L14.17 218.2L14.17 253.38L22.52 253.38L22.52 218.2L36.63 218.2L36.63 210.81L0 210.81z" />
  <path fill="white" d="M102.08 210.82L102.08 253.39L93.72 253.39L93.72 235.76L71.92 235.76L71.92 253.39L63.57 253.39L63.57 210.82L71.92 210.82L71.92 228.38L93.72 228.38L93.72 210.82L102.08 210.82z" />
  <path fill="white" d="M162.85 246.06L162.85 253.39L133.49 253.39L133.49 210.82L162.68 210.82L162.68 218.2L141.85 218.2L141.85 228.19L160.19 228.19L160.19 235.58L141.85 235.58L141.85 246.06L162.85 246.06z" />
  <path fill="white" d="M256.45 246.06L256.45 253.39L227.51 253.39L227.51 210.82L235.86 210.82L235.86 246.06L256.45 246.06z" />
  <path fill="white" d="m315.36,232.19c0-8.12-5.88-14.17-13.75-14.17s-13.99,6.11-13.99,14.17,5.94,14.05,13.99,14.05,13.75-6,13.75-14.05m-36.27,0c0-12.36,9.5-21.92,22.52-21.92s22.28,9.32,22.28,21.92-9.38,21.74-22.28,21.74-22.52-9.45-22.52-21.74" />
  <path fill="white" d="M391.16 210.82L391.16 253.87L386.43 253.87L361.06 225.41L361.06 253.39L352.89 253.39L352.89 210.39L357.61 210.39L382.92 238.79L382.92 210.82L391.16 210.82z" />
  <path fill="white" d="m458.96,232.19v16.77c-2.3,1.76-7.33,4.97-16.23,4.97-13.26,0-22.76-9.51-22.76-21.8s9.5-21.85,22.94-21.85c8.54,0,13.02,3.02,14.6,4.06l-3.69,6.66c-1.09-.73-4.66-2.91-10.54-2.91-8.42,0-14.65,5.57-14.65,14.05s6.54,14.29,14.59,14.29c3.21,0,5.87-.66,7.87-1.63v-12.6h7.88Z" />
  <path fill="white" d="M517.68 246.06L517.68 253.39L488.31 253.39L488.31 210.82L517.51 210.82L517.51 218.2L496.68 218.2L496.68 228.19L515.02 228.19L515.02 235.58L496.68 235.58L496.68 246.06L517.68 246.06z" />
  <path fill="white" d="M583.06 210.82L565.39 253.39L559.99 253.39L542.25 210.82L551.64 210.82L560.24 233.35L562.96 241.94L565.63 233.35L573.98 210.82L583.06 210.82z" />
  <path fill="white" d="M609.69 210.82h8.36v42.57H609.69Z" />
  <path fill="white" d="M681.62 218.2L667.51 218.2L667.51 253.39L659.16 253.39L659.16 218.2L644.99 218.2L644.99 210.81L681.62 210.81L681.62 218.2z" />
  <path fill="white" d="M728 236.79L728 253.38L719.64 253.38L719.64 236.79L704.02 210.82L714.01 210.82L724.19 228.56L734.36 210.82L743.8 210.82L728 236.79z" />
</g>
</svg>